<?xml version="1.0" encoding="UTF-8" standalone="no"?>
<!-- Generator: Adobe Illustrator 18.0.0, SVG Export Plug-In . SVG Version: 6.00 Build 0)  -->

<svg
   xmlns:dc="http://purl.org/dc/elements/1.1/"
   xmlns:cc="http://creativecommons.org/ns#"
   xmlns:rdf="http://www.w3.org/1999/02/22-rdf-syntax-ns#"
   xmlns:svg="http://www.w3.org/2000/svg"
   xmlns="http://www.w3.org/2000/svg"
   xmlns:sodipodi="http://sodipodi.sourceforge.net/DTD/sodipodi-0.dtd"
   xmlns:inkscape="http://www.inkscape.org/namespaces/inkscape"
   version="1.1"
   id="Capa_1"
   x="0px"
   y="0px"
   viewBox="0 0 80 80"
   enable-background="new 257.6 380.9 80 80"
   xml:space="preserve"
   inkscape:version="0.91 r13725"
   sodipodi:docname="mail2.svg"
   width="80"
   height="80"><metadata
     id="metadata3345"><rdf:RDF><cc:Work
         rdf:about=""><dc:format>image/svg+xml</dc:format><dc:type
           rdf:resource="http://purl.org/dc/dcmitype/StillImage" /><dc:title></dc:title></cc:Work></rdf:RDF></metadata><defs
     id="defs3343" /><sodipodi:namedview
     pagecolor="#ffffff"
     bordercolor="#666666"
     borderopacity="1"
     objecttolerance="10"
     gridtolerance="10"
     guidetolerance="10"
     inkscape:pageopacity="0"
     inkscape:pageshadow="2"
     inkscape:window-width="1920"
     inkscape:window-height="1177"
     id="namedview3341"
     showgrid="false"
     inkscape:zoom="1.1136932"
     inkscape:cx="8.4076646"
     inkscape:cy="-90.756631"
     inkscape:window-x="1672"
     inkscape:window-y="-8"
     inkscape:window-maximized="1"
     inkscape:current-layer="Capa_1" /><g
     id="g3337"
     transform="matrix(1.0050125,0,0,1.0050125,-259.09122,-383.73808)"><path
       d="m 260.5,400.1 c 2.1,1.1 32,17.2 33.1,17.8 1.1,0.6 2.6,0.9 4,0.9 1.4,0 2.9,-0.3 4,-0.9 1.1,-0.6 31,-16.6 33.1,-17.8 2.1,-1.1 4.2,-4.8 0.3,-4.8 l -74.7,0 c -4,0 -2,3.7 0.2,4.8 z m 75.2,8.8 c -2.5,1.2 -32.5,17 -34,17.8 -1.5,0.8 -2.6,0.9 -4,0.9 -1.4,0 -2.5,-0.1 -4,-0.9 -1.6,-0.8 -31.7,-16.5 -34.2,-17.8 -1.8,-0.9 -1.7,0.2 -1.7,1 0,0.8 0,32.4 0,32.4 0,1.9 2.5,4.2 4.4,4.2 l 70.8,0 c 1.9,0 4.4,-2.4 4.4,-4.2 0,0 0,-31.6 0,-32.4 0,-0.8 0,-1.9 -1.7,-1 z"
       id="path3339"
       inkscape:connector-curvature="0" /></g></svg>