<?xml version="1.0" encoding="utf-8"?>
<!DOCTYPE svg PUBLIC "-//W3C//DTD SVG 1.1//EN" "http://www.w3.org/Graphics/SVG/1.1/DTD/svg11.dtd">
<svg version="1.1" id="Capa_1" xmlns="http://www.w3.org/2000/svg" xmlns:xlink="http://www.w3.org/1999/xlink" x="0px" y="0px" viewBox="0 0 80 80" enable-background="new 0 0 80 80" xml:space="preserve">
<g>
	<path fill="#000000" d="M260.5,400.1c2.1,1.1,32,17.2,33.1,17.8c1.1,0.6,2.6,0.9,4,0.9
		s2.9-0.3,4-0.9s31-16.6,33.1-17.8c2.1-1.1,4.2-4.8,0.3-4.8h-74.7C256.3,395.3,258.3,399,260.5,400.1z M335.7,408.9
		c-2.5,1.2-32.5,17-34,17.8s-2.6,0.9-4,0.9s-2.5-0.1-4-0.9c-1.6-0.8-31.7-16.5-34.2-17.8c-1.8-0.9-1.7,0.2-1.7,1
		c0,0.8,0,32.4,0,32.4c0,1.9,2.5,4.2,4.4,4.2H333c1.9,0,4.4-2.4,4.4-4.2c0,0,0-31.6,0-32.4C337.4,409.1,337.4,408,335.7,408.9
		L335.7,408.9z"/>
</g>
</svg>
