<?xml version="1.0" standalone="no"?>
<!DOCTYPE svg PUBLIC "-//W3C//DTD SVG 20010904//EN"
 "http://www.w3.org/TR/2001/REC-SVG-20010904/DTD/svg10.dtd">
<svg version="1.0" xmlns="http://www.w3.org/2000/svg"
 width="750.000000pt" height="750.000000pt" viewBox="0 0 750.000000 750.000000"
 preserveAspectRatio="xMidYMid meet">
<metadata>
Created by potrace 1.11, written by Peter Selinger 2001-2013
</metadata>
<g transform="translate(0.000000,750.000000) scale(0.100000,-0.100000)"
fill="#000000" stroke="none">
<path d="M684 7285 l-24 -24 0 -2016 1 -2017 32 19 c18 11 99 57 180 104 81
46 160 91 175 100 15 9 117 68 227 131 238 137 881 509 945 546 25 15 61 36
81 47 27 15 427 246 537 310 9 6 45 26 80 45 l62 35 -2 735 c-3 723 -3 735
-23 745 -29 15 -133 74 -563 323 -210 122 -387 222 -392 222 -6 0 -10 5 -10
10 0 6 -4 10 -8 10 -7 0 -200 110 -1048 601 -101 58 -182 99 -198 99 -15 0
-38 -11 -52 -25z"/>
<path d="M3340 4482 l0 -1340 153 -87 c83 -48 166 -96 182 -105 17 -10 82 -48
145 -84 193 -111 203 -117 260 -151 30 -18 147 -85 260 -150 113 -65 219 -126
235 -136 l31 -18 79 45 c44 25 98 56 120 69 50 28 441 254 639 369 82 47 151
86 154 86 3 0 13 6 21 14 9 7 41 27 71 43 30 17 98 55 150 85 52 30 212 123
355 205 143 83 305 176 360 208 55 32 113 66 130 74 16 9 32 18 35 21 3 3 25
16 50 29 54 29 80 58 80 91 0 14 -8 35 -18 46 -9 12 -125 84 -257 159 -132 76
-310 179 -395 228 -85 49 -170 98 -188 108 -135 77 -189 108 -355 206 -59 35
-110 63 -113 63 -3 0 -18 8 -32 18 -15 11 -52 32 -82 49 -57 31 -154 87 -180
103 -23 14 -120 70 -170 98 -25 14 -121 70 -214 124 -93 54 -171 98 -173 98
-2 0 -20 11 -41 23 -31 20 -232 137 -337 197 -16 9 -196 112 -398 229 -202
117 -389 224 -415 238 -26 14 -63 36 -82 48 -19 12 -41 25 -47 29 -10 6 -13
-263 -13 -1332z"/>
<path d="M1860 3506 c-87 -52 -251 -147 -295 -172 -22 -12 -166 -95 -320 -184
-154 -89 -300 -174 -325 -188 -46 -25 -197 -114 -237 -139 l-23 -13 0 -1286 0
-1285 26 -26 c37 -36 69 -28 215 58 68 39 144 83 169 97 25 13 50 28 55 32 6
4 134 78 285 165 151 86 295 170 320 185 25 15 65 39 90 53 37 20 157 89 325
187 17 10 129 74 250 144 121 69 227 130 235 135 14 9 151 89 225 131 17 10
84 49 150 87 204 118 448 260 485 281 19 11 89 51 155 89 229 133 510 296 545
315 19 11 39 23 43 28 5 4 -33 32 -85 61 -51 30 -101 59 -110 64 -9 6 -34 20
-55 31 -21 12 -222 128 -448 259 -225 130 -522 302 -660 382 -137 79 -257 149
-265 154 -20 12 -255 147 -300 172 -19 10 -112 64 -206 118 -94 55 -175 99
-180 98 -5 0 -34 -15 -64 -33z"/>
</g>
</svg>
